<svg xmlns="http://www.w3.org/2000/svg" height="23.992" width="102.282"><g font-size="31" font-family="sans-serif"><path d="M84.67 9.173V0h2.786v23.553H84.67V21.01q-.878 1.514-2.225 2.255-1.332.727-3.21.727-3.07 0-5.01-2.452-1.92-2.452-1.92-6.45 0-3.995 1.92-6.447 1.94-2.452 5.01-2.452 1.878 0 3.21.75 1.347.73 2.225 2.24zm-9.49 5.918q0 3.08 1.256 4.83 1.272 1.74 3.48 1.74 2.21 0 3.483-1.74 1.27-1.75 1.27-4.83 0-3.07-1.27-4.81-1.28-1.75-3.49-1.75t-3.48 1.76q-1.26 1.74-1.26 4.817z" fill="#fff"/><path d="M89.192 6.6h2.786v16.953h-2.786zm0-6.6h2.786v3.527h-2.786z" fill="#ff8c00"/><path d="M96.545 1.786V6.6h5.737v2.164h-5.737v9.204q0 2.073.56 2.664.575.59 2.316.59h2.87v2.33h-2.86q-3.22 0-4.45-1.195-1.22-1.21-1.22-4.39V8.765H91.7V6.6h2.045V1.786z" fill="#ff8c00"/><path d="M12.05 7.1v2.633q-1.182-.605-2.453-.908-1.272-.303-2.634-.303-2.074 0-3.118.636-1.03.636-1.03 1.907 0 .97.742 1.53.742.544 2.982 1.043l.95.212q2.96.636 4.21 1.802 1.25 1.15 1.25 3.224 0 2.36-1.88 3.74-1.868 1.376-5.13 1.376-1.37 0-2.85-.272-1.47-.258-3.107-.788v-2.876q1.543.803 3.04 1.21 1.5.395 2.97.395 1.965 0 3.025-.66 1.06-.68 1.06-1.9 0-1.132-.77-1.74-.757-.603-3.345-1.163L5 15.96q-2.587-.545-3.74-1.665-1.14-1.14-1.14-3.108 0-2.39 1.696-3.693T6.63 6.19q1.544 0 2.906.228 1.362.227 2.513.68z" fill="#fff"/><path d="M21.112 15.03q-3.376 0-4.677.773-1.302.772-1.302 2.634 0 1.483.97 2.36.982.864 2.663.864 2.316 0 3.708-1.63 1.408-1.65 1.408-4.37v-.62zm5.555-1.15v9.673h-2.785V20.98q-.954 1.544-2.377 2.285-1.422.727-3.48.727-2.605 0-4.15-1.453-1.527-1.47-1.527-3.93 0-2.86 1.907-4.32 1.922-1.455 5.722-1.455h3.905v-.27q0-1.925-1.272-2.97-1.256-1.06-3.542-1.06-1.453 0-2.83.35-1.378.35-2.65 1.044V7.37q1.53-.59 2.968-.877 1.438-.303 2.8-.303 3.678 0 5.495 1.91 1.82 1.91 1.82 5.785zM26.42 6.6h2.953l5.297 14.228L39.968 6.6h2.952l-6.358 16.953h-3.784zm30.846 7.78v1.362H44.46q.182 2.876 1.726 4.39 1.56 1.5 4.33 1.5 1.603 0 3.102-.395 1.513-.393 2.997-1.18v2.633q-1.5.636-3.073.97-1.574.332-3.194.332-4.056 0-6.433-2.36-2.36-2.363-2.36-6.39 0-4.162 2.24-6.6 2.254-2.45 6.07-2.45 3.42 0 5.403 2.21 1.998 2.194 1.998 5.978zm-2.786-.817q-.03-2.286-1.286-3.648-1.24-1.363-3.3-1.363-2.33 0-3.74 1.317-1.39 1.31-1.603 3.7z" fill="#fff"/><path d="M68.993 9.173V0h2.785v23.553h-2.785V21.01q-.878 1.514-2.225 2.255-1.332.727-3.21.727-3.072 0-5.01-2.452-1.922-2.452-1.922-6.45 0-3.995 1.922-6.447 1.938-2.452 5.01-2.452 1.878 0 3.21.75 1.347.73 2.225 2.24zm-9.49 5.918q0 3.08 1.255 4.83 1.272 1.74 3.482 1.74t3.48-1.74q1.273-1.75 1.273-4.83 0-3.07-1.272-4.81-1.27-1.75-3.48-1.75t-3.48 1.76q-1.25 1.74-1.25 4.817z" fill="#fff"/></g></svg>