<?xml version="1.0" encoding="UTF-8" standalone="no"?>
<svg
   xmlns:dc="http://purl.org/dc/elements/1.1/"
   xmlns:cc="http://creativecommons.org/ns#"
   xmlns:rdf="http://www.w3.org/1999/02/22-rdf-syntax-ns#"
   xmlns:svg="http://www.w3.org/2000/svg"
   xmlns="http://www.w3.org/2000/svg"
   xmlns:sodipodi="http://sodipodi.sourceforge.net/DTD/sodipodi-0.dtd"
   xmlns:inkscape="http://www.inkscape.org/namespaces/inkscape"
   width="133"
   height="31"
   version="1.1"
   id="svg10"
   sodipodi:docname="logo.svg"
   inkscape:version="0.92.0 r">
  <metadata
     id="metadata16">
    <rdf:RDF>
      <cc:Work
         rdf:about="">
        <dc:format>image/svg+xml</dc:format>
        <dc:type
           rdf:resource="http://purl.org/dc/dcmitype/StillImage" />
      </cc:Work>
    </rdf:RDF>
  </metadata>
  <defs
     id="defs14" />
  <sodipodi:namedview
     pagecolor="#ffffff"
     bordercolor="#666666"
     borderopacity="1"
     objecttolerance="10"
     gridtolerance="10"
     guidetolerance="10"
     inkscape:pageopacity="0"
     inkscape:pageshadow="2"
     inkscape:window-width="1878"
     inkscape:window-height="1058"
     id="namedview12"
     showgrid="false"
     inkscape:zoom="8"
     inkscape:cx="80.428227"
     inkscape:cy="11.678587"
     inkscape:window-x="0"
     inkscape:window-y="20"
     inkscape:window-maximized="1"
     inkscape:current-layer="svg10" />
  <g
     aria-label="saveddit"
     style="font-size:31px;font-family:sans-serif"
     id="text8"
     transform="translate(0,-0.02999378)">
    <g
       id="g4498">
      <path
         d="M 100.02954,12.677002 V 3.5041504 h 2.78516 V 27.056885 h -2.78516 v -2.542969 q -0.877929,1.513672 -2.225097,2.255371 -1.332031,0.726563 -3.208984,0.726563 -3.072754,0 -5.010254,-2.452149 -1.922363,-2.452148 -1.922363,-6.448242 0,-3.996094 1.922363,-6.448242 1.9375,-2.4521486 5.010254,-2.4521486 1.876953,0 3.208984,0.7416996 1.347168,0.726562 2.225097,2.240234 z m -9.490722,5.918457 q 0,3.072754 1.256348,4.828613 1.271484,1.740723 3.481445,1.740723 2.209961,0 3.481446,-1.740723 1.271483,-1.755859 1.271483,-4.828613 0,-3.072754 -1.271483,-4.813477 -1.271485,-1.755859 -3.481446,-1.755859 -2.209961,0 -3.481445,1.755859 -1.256348,1.740723 -1.256348,4.813477 z"
         style="fill:#00b358;fill-opacity:1"
         id="path5685"
         inkscape:connector-curvature="0">
        <animate
           id="animation1"
           attributeName="opacity"
           from="0"
           to="1"
           begin="0.25s"
           dur="0.7s"
           repeatCount="0" />
      </path>
      <path
         d="m 104.55151,10.10376 h 2.78516 v 16.953125 h -2.78516 z m 0,-6.5996096 h 2.78516 v 3.5268555 h -2.78516 z"
         style="fill:#ff8c00"
         id="path5687"
         inkscape:connector-curvature="0" />
      <path
         d="M 111.90405,5.2902832 V 10.10376 h 5.73682 v 2.164551 h -5.73682 v 9.203125 q 0,2.07373 0.56006,2.664062 0.5752,0.590332 2.31592,0.590332 h 2.86084 v 2.331055 h -2.86084 q -3.22412,0 -4.4502,-1.195801 -1.22607,-1.210938 -1.22607,-4.389648 V 12.268311 H 107.0603 V 10.10376 h 2.04346 V 5.2902832 Z"
         style="fill:#ff8c00"
         id="path5689"
         inkscape:connector-curvature="0" />
      <animateTransform
         attributeName="transform"
         type="translate"
         from="0 0"
         to="0 0"
         begin="0s"
         dur="1s"
         values="-16;-16;0"
         keySplines="0.1 0.8 0.2 1;                    0.1 0.8 0.2 1"
         keyTimes="0;0.25;1"
         calcMode="spline"
         repeatCount="0" />
    </g>
    <rect
       style="opacity:1;fill:#ffffff;fill-opacity:1;fill-rule:nonzero;stroke:none;stroke-width:0.20209692;stroke-linecap:butt;stroke-linejoin:round;stroke-miterlimit:4;stroke-dasharray:none;stroke-dashoffset:0;stroke-opacity:0.34199135"
       id="rect4506"
       width="35.213234"
       height="24.050638"
       x="51.92268"
       y="3.505199" />
    <path
       d="m 27.407959,10.603271 v 2.63379 q -1.180664,-0.605469 -2.452148,-0.908204 -1.271485,-0.302734 -2.63379,-0.302734 -2.07373,0 -3.118164,0.635742 -1.029296,0.635742 -1.029296,1.907227 0,0.96875 0.741699,1.528808 0.741699,0.544922 2.981933,1.044434 l 0.953614,0.211914 q 2.966797,0.635742 4.208007,1.80127 1.256348,1.15039 1.256348,3.224121 0,2.361328 -1.876953,3.738769 -1.861816,1.377442 -5.131348,1.377442 -1.362304,0 -2.845703,-0.272461 -1.468262,-0.257325 -3.103027,-0.78711 v -2.875976 q 1.543945,0.802246 3.04248,1.210937 1.498535,0.393555 2.966797,0.393555 1.967774,0 3.027344,-0.666016 1.05957,-0.681152 1.05957,-1.907226 0,-1.135254 -0.771972,-1.740723 -0.756836,-0.605469 -3.345215,-1.165527 l -0.96875,-0.227051 q -2.588379,-0.544922 -3.73877,-1.665039 -1.15039,-1.135254 -1.15039,-3.103027 0,-2.391602 1.695312,-3.69336 1.695313,-1.3017576 4.813477,-1.3017576 1.543945,0 2.90625,0.2270507 1.362304,0.2270509 2.512695,0.6811519 z"
       style="fill:#096aa3;fill-opacity:1"
       id="path5675"
       inkscape:connector-curvature="0" />
    <path
       d="m 36.470947,18.534912 q -3.375488,0 -4.677246,0.771973 -1.301758,0.771972 -1.301758,2.633789 0,1.483398 0.96875,2.361328 0.983887,0.862793 2.664063,0.862793 2.315918,0 3.708496,-1.634766 1.407715,-1.649902 1.407715,-4.374511 v -0.620606 z m 5.555176,-1.150391 v 9.672364 h -2.785156 v -2.573242 q -0.953613,1.543945 -2.376465,2.285644 -1.422852,0.726563 -3.481445,0.726563 -2.603516,0 -4.147461,-1.453125 -1.528809,-1.468262 -1.528809,-3.920411 0,-2.860839 1.907227,-4.313964 1.922363,-1.453125 5.721679,-1.453125 h 3.905274 v -0.272461 q 0,-1.922364 -1.271485,-2.966797 -1.256347,-1.059571 -3.541992,-1.059571 -1.453125,0 -2.830566,0.348145 -1.377442,0.348145 -2.648926,1.044434 v -2.573243 q 1.528809,-0.590332 2.966797,-0.8779293 1.437988,-0.3027343 2.800293,-0.3027343 3.678223,0 5.494629,1.9072266 1.816406,1.907226 1.816406,5.782226 z"
       style="fill:#096aa3;fill-opacity:1"
       id="path5677"
       inkscape:connector-curvature="0" />
    <path
       d="m 41.780029,10.10376 h 2.95166 l 5.297852,14.228515 5.297852,-14.228515 h 2.95166 l -6.357422,16.953125 h -3.78418 z"
       style="fill:#096aa3;fill-opacity:1"
       id="path5679"
       inkscape:connector-curvature="0" />
    <path
       d="m 72.624756,17.884033 v 1.362305 H 59.819092 q 0.18164,2.875976 1.725586,4.389648 1.559082,1.498535 4.329101,1.498535 1.604492,0 3.103028,-0.393554 1.513672,-0.393555 2.99707,-1.180664 v 2.633789 q -1.498535,0.635742 -3.072754,0.96875 -1.574219,0.333008 -3.193848,0.333008 -4.05664,0 -6.433105,-2.361329 -2.361328,-2.361328 -2.361328,-6.387695 0,-4.162597 2.240234,-6.599609 2.255371,-2.4521486 6.069824,-2.4521486 3.420899,0 5.403809,2.2099606 1.998047,2.194825 1.998047,5.979004 z M 69.8396,17.06665 q -0.03027,-2.285644 -1.286621,-3.647949 -1.241211,-1.362305 -3.299805,-1.362305 -2.331055,0 -3.73877,1.316895 -1.392578,1.316895 -1.604492,3.708496 z"
       style="fill:#096aa3;fill-opacity:1"
       id="path5681"
       inkscape:connector-curvature="0" />
    <path
       d="M 84.351807,12.677002 V 3.5041504 h 2.785156 V 27.056885 h -2.785156 v -2.542969 q -0.87793,1.513672 -2.225098,2.255371 -1.332031,0.726563 -3.208984,0.726563 -3.072754,0 -5.010254,-2.452149 -1.922364,-2.452148 -1.922364,-6.448242 0,-3.996094 1.922364,-6.448242 1.9375,-2.4521486 5.010254,-2.4521486 1.876953,0 3.208984,0.7416996 1.347168,0.726562 2.225098,2.240234 z m -9.490723,5.918457 q 0,3.072754 1.256348,4.828613 1.271484,1.740723 3.481445,1.740723 2.209961,0 3.481445,-1.740723 1.271485,-1.755859 1.271485,-4.828613 0,-3.072754 -1.271485,-4.813477 -1.271484,-1.755859 -3.481445,-1.755859 -2.209961,0 -3.481445,1.755859 -1.256348,1.740723 -1.256348,4.813477 z"
       style="fill:#096aa3;fill-opacity:1"
       id="path5683"
       inkscape:connector-curvature="0" />
  </g>
</svg>
